<svg id="Group_690" data-name="Group 690" xmlns="http://www.w3.org/2000/svg" xmlns:xlink="http://www.w3.org/1999/xlink" width="1420" height="281.603" viewBox="0 0 1420 281.603">
  <defs>
    <clipPath id="clip-path">
      <rect id="Rectangle_643" data-name="Rectangle 643" width="1420" height="281.603" fill="none"/>
    </clipPath>
  </defs>
  <g id="Group_669" data-name="Group 669" transform="translate(0 0)" clip-path="url(#clip-path)">
    <path id="Path_2337" data-name="Path 2337" d="M286.3.214c1.31-.067,2.355-.161,3.4-.161C301.457.042,313.228.107,325,0a6.075,6.075,0,0,1,5.445,2.58Q371.383,55.3,412.463,107.906q41.38,53.055,82.782,106.1c.577.749,1.192,1.456,2.357,2.862V25.792c0-8.707-1.313-17.164-5.259-25.471H538.39a10,10,0,0,1-.47,1.941c-3.343,7.609-4.331,15.61-4.32,23.866q.1,78.963.04,157.912c.013,26.5,0,53,.148,79.5.04,5.123.762,10.261,1.149,15.384.067.814.107,1.617.174,2.621H497.763Q413.1,172.389,327.89,62.529a26.444,26.444,0,0,0-.548,2.715c-.067,1.071-.027,2.153-.027,3.238q0,92.99-.013,185.979c0,8.815.722,17.471,4.562,25.59a8.587,8.587,0,0,1,.335,1.512H286.514c1.23-4.146,2.755-8.092,3.517-12.173a69.916,69.916,0,0,0,1.176-12.842q.1-115.466.056-230.942c0-7.972-.991-15.758-4.255-23.143A21.181,21.181,0,0,1,286.3.214" transform="translate(353.888 0.001)" fill="#040504"/>
    <path id="Path_2338" data-name="Path 2338" d="M344.038,180.292H234.767q-4.055,9.673-8.095,19.425c-7.343,17.7-14.581,35.437-22.034,53.082-3.636,8.6-6.044,17.392-6.044,26.784a17.874,17.874,0,0,1-.161,1.885h-46.81c.04-.333-.025-.628.094-.789,7.746-10.981,12.4-23.477,17.524-35.744Q219.67,124.133,270.1,3.344c.454-1.1,1-2.153,1.525-3.278h34.836c2.422,5.458,4.857,10.9,7.252,16.375Q366.4,136.5,419.179,256.52c3.372,7.638,7.708,14.861,11.6,22.285.429.832.856,1.648,1.406,2.717H382.63c-.092-1.029-.28-2.059-.28-3.09a55.617,55.617,0,0,0-5.018-22.274q-15.852-36.379-31.8-72.735c-.429-.977-.924-1.939-1.5-3.131M328.17,144.2c-13.392-30.623-26.569-60.79-40.093-91.693-12.857,30.956-25.4,61.15-38.087,91.693Z" transform="translate(187.418 0.082)" fill="#040504"/>
    <path id="Path_2339" data-name="Path 2339" d="M672.257,180.3H563.024c-1.069,2.489-2.167,4.978-3.209,7.491Q545.708,221.8,531.63,255.826a57.571,57.571,0,0,0-4.577,19.838c-.067,1.9-.266,3.775-.414,5.807h-47.13a6.287,6.287,0,0,1,.575-1.377c7.131-9.926,11.585-21.2,16.241-32.374Q547.495,125.074,598.7,2.425c.322-.763.669-1.514,1.044-2.355H634.53c3.171,7.225,6.368,14.436,9.539,21.659Q695.7,139.14,747.4,256.524c3.332,7.545,7.6,14.66,11.438,21.978.483.937,1.018,1.847,1.659,3.01H710.809c-.105-1.485-.32-2.983-.333-4.481a51.553,51.553,0,0,0-4.495-19.852q-16.318-37.566-32.8-75.05c-.242-.537-.535-1.058-.921-1.834m-15.881-36.133C643,113.594,629.767,83.321,616.294,52.5c-12.829,30.9-25.388,61.137-38.058,91.664Z" transform="translate(592.711 0.087)" fill="#040504"/>
    <path id="Path_2340" data-name="Path 2340" d="M0,.021H72.963C81.483.034,90.018.2,98.419,1.8c16.858,3.2,31.45,10.393,43.226,23.237A75.059,75.059,0,0,1,161.376,68.45c1.78,15.919.266,31.623-7.1,46.273a73.7,73.7,0,0,1-19.094,23.611c-14.324,11.88-31.032,17.819-49.386,19.615-13.325,1.295-26.614,1.228-39.816-1.272a13.79,13.79,0,0,0-2.395-.027c-.065,1.069-.188,2.113-.188,3.155q-.017,48.745-.025,97.484c0,7.625,1.055,15.038,4.255,22.061a21.625,21.625,0,0,1,.682,2.194H.226c1.071-3.265,2.142-6.3,3.066-9.365a55.436,55.436,0,0,0,1.872-16.013q.06-115.1.025-230.218C5.174,17.854,4.132,9.934.883,2.429.6,1.788.4,1.132,0,.021M43.557,120.7c4.441.818,8.75,1.847,13.137,2.381,14.1,1.726,28.07,1.125,41.459-4.135A38.973,38.973,0,0,0,119.6,98.735c3.743-7.813,4.6-16.12,3.692-24.575-1.471-13.5-8.215-23.852-19.733-30.981a46.021,46.021,0,0,0-22.486-6.865c-12.111-.494-24.244-.456-36.365-.628A4.512,4.512,0,0,0,43.557,36Z" transform="translate(0 0.026)" fill="#040504"/>
    <path id="Path_2341" data-name="Path 2341" d="M542.641,34.726v3.732q0,108.982.027,217.978c.013,7.947.95,15.784,4.533,23.063a17.037,17.037,0,0,1,.671,1.914H499.657a10.291,10.291,0,0,1,.523-1.914c3.558-7.158,4.481-14.861,4.481-22.7q.04-109.344.013-218.7c0-1.042-.148-2.086-.228-3.426-1.471-.065-2.755-.172-4.041-.172-19.812-.013-39.623-.067-59.437.013-8.294.04-16.56.6-24.44,3.558-2.569.964-5.042,2.142-8.095,3.453-.253-13.98.736-27.6.937-41.419H638.012c.414,13.674.814,27.278,1.23,41.124a5.111,5.111,0,0,1-1.579-.159c-9.552-5.286-20.013-6.489-30.65-6.556-20.292-.107-40.587-.027-60.879-.013-1.044,0-2.1.134-3.493.228" transform="translate(504.806 0.127)" fill="#040504"/>
    <path id="Path_2342" data-name="Path 2342" d="M123.767,245.632h4.452c19.333,0,38.677-.148,57.995.054,12.974.121,25.686-.644,37.993-7.547-1.9,14.825-3.734,28.966-5.566,43.279H80.676a17.138,17.138,0,0,1,.7-2.341c3.289-6.983,4.264-14.49,4.264-22.048q.124-116.163.016-232.344c-.016-7.694-1.071-15.29-4.363-22.408-.239-.537-.427-1.111-.628-1.673-.029-.094.054-.228.121-.5h47.948c-.991,2.73-1.954,5.152-2.73,7.627a56.716,56.716,0,0,0-2.247,17.043q.02,108.62.013,217.242Z" transform="translate(99.698 0.133)" fill="#040504"/>
    <path id="Path_2343" data-name="Path 2343" d="M664.932,128.792a27.038,27.038,0,1,0-27.036,27.05,27.043,27.043,0,0,0,27.036-27.05" transform="translate(755.068 125.761)" fill="#040504"/>
    <rect id="Rectangle_641" data-name="Rectangle 641" width="7.278" height="50.969" transform="translate(1302.326 0.894)" fill="#040504"/>
    <path id="Path_2344" data-name="Path 2344" d="M591.336.4h10.192l23.667,42.235V.4h7.278V51.372H622.279L598.612,9.136V51.372h-7.276Z" transform="translate(730.938 0.495)" fill="#040504"/>
    <path id="Path_2345" data-name="Path 2345" d="M638.848,45.945h.72c6.556,0,12.31-3.705,12.75-10.192h7.265c-.5,10.34-9.459,16.746-20.375,16.746-14.93,0-24.027-11.29-24.027-26.22,0-14.915,9.1-26.207,24.027-26.207,10.917,0,19.879,6.409,20.375,16.75h-7.265c-.441-6.476-6.194-10.194-12.75-10.194h-.72c-10.57,0-16.388,8.734-16.388,19.651s5.818,19.666,16.388,19.666" transform="translate(760.413 0.089)" fill="#040504"/>
    <rect id="Rectangle_642" data-name="Rectangle 642" width="118.333" height="7.278" transform="translate(1301.667 61.763)" fill="#040504"/>
  </g>
</svg>
